HIERARCHY
ROOT Hips
{
    OFFSET 0.000 93.594 0.000
    CHANNELS 6 Xposition Yposition Zposition Yrotation Xrotation Zrotation
    JOINT RightHip
    {
        OFFSET -9.500 -1.594 0.000
        CHANNELS 3 Yrotation Xrotation Zrotation
        JOINT RightKnee
        {
            OFFSET 0.000 -42.000 0.000
            CHANNELS 3 Yrotation Xrotation Zrotation
            JOINT RightAnkle
            {
                OFFSET 0.000 -42.000 0.000
                CHANNELS 3 Yrotation Xrotation Zrotation
                End Site
                {
                    OFFSET 0.000 -8.000 17.500
                }
            }
        }
    }
    JOINT LeftHip
    {
        OFFSET 9.500 -1.594 0.000
        CHANNELS 3 Yrotation Xrotation Zrotation
        JOINT LeftKnee
        {
            OFFSET 0.000 -42.000 0.000
            CHANNELS 3 Yrotation Xrotation Zrotation
            JOINT LeftAnkle
            {
                OFFSET 0.000 -42.000 0.000
                CHANNELS 3 Yrotation Xrotation Zrotation
                End Site
                {
                    OFFSET 0.000 -8.000 17.500
                }
            }
        }
    }
    JOINT Chest
    {
        OFFSET 0.000 14.348 0.000
        CHANNELS 3 Yrotation Xrotation Zrotation
        JOINT Chest2
        {
            OFFSET 0.000 9.746 0.000
            CHANNELS 3 Yrotation Xrotation Zrotation
            JOINT Chest3
            {
                OFFSET 0.000 10.149 0.000
                CHANNELS 3 Yrotation Xrotation Zrotation
                JOINT Chest4
                {
                    OFFSET 0.000 9.746 0.000
                    CHANNELS 3 Yrotation Xrotation Zrotation
                    JOINT Neck
                    {
                        OFFSET 0.000 10.417 0.000
                        CHANNELS 3 Yrotation Xrotation Zrotation
                        JOINT Head
                        {
                            OFFSET 0.000 9.000 0.000
                            CHANNELS 3 Yrotation Xrotation Zrotation
                            End Site
                            {
                                OFFSET 0.000 16.000 0.000
                            }
                        }
                    }
                    JOINT RightCollar
                    {
                        OFFSET -3.200 6.945 0.000
                        CHANNELS 3 Yrotation Xrotation Zrotation
                        JOINT RightShoulder
                        {
                            OFFSET -12.800 0.000 0.000
                            CHANNELS 3 Yrotation Xrotation Zrotation
                            JOINT RightElbow
                            {
OFFSET -0 -27 0.000
						CHANNELS 3 Xrotation Yrotation Zrotation
                                JOINT RightWrist
                                {
OFFSET -0 -26 0.000
						CHANNELS 3 Xrotation Yrotation Zrotation
                                    JOINT RightFinger0
                                    {
OFFSET -0.196 -2.56 3.210
						CHANNELS 3 Xrotation Yrotation Zrotation
                                        JOINT RightFinger01
                                        {
OFFSET -0 -3.788 0.000
						CHANNELS 3 Xrotation Yrotation Zrotation
                                            JOINT RightFinger0Nub
                                            {
OFFSET -0 -2.631 0.000
						CHANNELS 3 Xrotation Yrotation Zrotation
                                                End Site
                                                {
OFFSET 0 -2.256 0
                                                }
                                            }
                                        }
                                    }
                                    JOINT RightFinger1
                                    {
OFFSET -0.523 -3.316 2.035
						CHANNELS 3 Xrotation Yrotation Zrotation
                                        JOINT RightFinger11
                                        {
OFFSET 0.094 -5.366 1.028
						CHANNELS 3 Xrotation Yrotation Zrotation
                                            JOINT RightFinger12
                                            {
OFFSET -0 -3.723 0.000
						CHANNELS 3 Xrotation Yrotation Zrotation
                                                JOINT RightFinger1Nub
                                                {
OFFSET -0 -2.111 0.000
						CHANNELS 3 Xrotation Yrotation Zrotation
                                                    End Site
                                                    {
OFFSET 0 -1.857 0
                                                    }
                                                }
                                            }
                                        }
                                    }
                                    JOINT RightFinger2
                                    {
OFFSET -0.532 -3.479 0.778
						CHANNELS 3 Xrotation Yrotation Zrotation
                                        JOINT RightFinger21
                                        {
OFFSET 0.086 -5.322 0.323
						CHANNELS 3 Xrotation Yrotation Zrotation
                                            JOINT RightFinger22
                                            {
OFFSET -0 -4.062 0.000
						CHANNELS 3 Xrotation Yrotation Zrotation
                                                JOINT RightFinger2Nub
                                                {
OFFSET -0 -2.547 0.000
						CHANNELS 3 Xrotation Yrotation Zrotation
                                                    End Site
                                                    {
OFFSET 0 -2.031 0
                                                    }
                                                }
                                            }
                                        }
                                    }
                                    JOINT RightFinger3
                                    {
OFFSET -0.553 -3.461 -0.133
						CHANNELS 3 Xrotation Yrotation Zrotation
                                        JOINT RightFinger31
                                        {
OFFSET 0.023 -4.767 -0.493
						CHANNELS 3 Xrotation Yrotation Zrotation
                                            JOINT RightFinger32
                                            {
OFFSET -0 -3.541 0.000
						CHANNELS 3 Xrotation Yrotation Zrotation
                                                JOINT RightFinger3Nub
                                                {
OFFSET -0 -2.456 0.000
						CHANNELS 3 Xrotation Yrotation Zrotation
                                                    End Site
                                                    {
OFFSET 0 -1.91 0
                                                    }
                                                }
                                            }
                                        }
                                    }
                                    JOINT RightFinger4
                                    {
OFFSET -0.483 -3.251 -1.236
						CHANNELS 3 Xrotation Yrotation Zrotation
                                        JOINT RightFinger41
                                        {
OFFSET 0.023 -4.259 -1.122
						CHANNELS 3 Xrotation Yrotation Zrotation
                                            JOINT RightFinger42
                                            {
OFFSET -0 -2.835 0.000
						CHANNELS 3 Xrotation Yrotation Zrotation
                                                JOINT RightFinger4Nub
                                                {
OFFSET -0 -1.792 0.000
						CHANNELS 3 Xrotation Yrotation Zrotation
                                                    End Site
                                                    {
OFFSET 0 -1.692 0
                                                    }
                                                }
                                            }
                                        }
                                    }
                                }
                            }
                        }
                    }
                    JOINT LeftCollar
                    {
                        OFFSET 3.200 6.945 0.000
                        CHANNELS 3 Yrotation Xrotation Zrotation
                        JOINT LeftShoulder
                        {
                            OFFSET 12.800 0.000 0.000
                            CHANNELS 3 Yrotation Xrotation Zrotation
                            JOINT LeftElbow
                            {
OFFSET -0 -27 0.000
						CHANNELS 3 Xrotation Yrotation Zrotation
                                JOINT LeftWrist
                                {
OFFSET -0 -26 0.000
						CHANNELS 3 Xrotation Yrotation Zrotation
                                    JOINT LeftFinger0
                                    {
OFFSET -0.196 -2.56 3.210
						CHANNELS 3 Xrotation Yrotation Zrotation
                                        JOINT LeftFinger01
                                        {
OFFSET -0 -3.788 0.000
						CHANNELS 3 Xrotation Yrotation Zrotation
                                            JOINT LeftFinger0Nub
                                            {
OFFSET -0 -2.631 0.000
						CHANNELS 3 Xrotation Yrotation Zrotation
                                                End Site
                                                {
OFFSET 0 -2.256 0
                                                }
                                            }
                                        }
                                    }
                                    JOINT LeftFinger1
                                    {
OFFSET -0.523 -3.316 2.035
						CHANNELS 3 Xrotation Yrotation Zrotation
                                        JOINT LeftFinger11
                                        {
OFFSET 0.094 -5.366 1.028
						CHANNELS 3 Xrotation Yrotation Zrotation
                                            JOINT LeftFinger12
                                            {
OFFSET -0 -3.723 0.000
						CHANNELS 3 Xrotation Yrotation Zrotation
                                                JOINT LeftFinger1Nub
                                                {
OFFSET -0 -2.111 0.000
						CHANNELS 3 Xrotation Yrotation Zrotation
                                                    End Site
                                                    {
OFFSET 0 -1.857 0
                                                    }
                                                }
                                            }
                                        }
                                    }
                                    JOINT LeftFinger2
                                    {
OFFSET -0.532 -3.479 0.778
						CHANNELS 3 Xrotation Yrotation Zrotation
                                        JOINT LeftFinger21
                                        {
OFFSET 0.086 -5.322 0.323
						CHANNELS 3 Xrotation Yrotation Zrotation
                                            JOINT LeftFinger22
                                            {
OFFSET -0 -4.062 0.000
						CHANNELS 3 Xrotation Yrotation Zrotation
                                                JOINT LeftFinger2Nub
                                                {
OFFSET -0 -2.547 0.000
						CHANNELS 3 Xrotation Yrotation Zrotation
                                                    End Site
                                                    {
OFFSET 0 -2.031 0
                                                    }
                                                }
                                            }
                                        }
                                    }
                                    JOINT LeftFinger3
                                    {
OFFSET -0.553 -3.461 -0.133
						CHANNELS 3 Xrotation Yrotation Zrotation
                                        JOINT LeftFinger31
                                        {
OFFSET 0.023 -4.767 -0.493
						CHANNELS 3 Xrotation Yrotation Zrotation
                                            JOINT LeftFinger32
                                            {
OFFSET -0 -3.541 0.000
						CHANNELS 3 Xrotation Yrotation Zrotation
                                                JOINT LeftFinger3Nub
                                                {
OFFSET -0 -2.456 0.000
						CHANNELS 3 Xrotation Yrotation Zrotation
                                                    End Site
                                                    {
OFFSET 0 -1.91 0
                                                    }
                                                }
                                            }
                                        }
                                    }
                                    JOINT LeftFinger4
                                    {
OFFSET -0.483 -3.251 -1.236
						CHANNELS 3 Xrotation Yrotation Zrotation
                                        JOINT LeftFinger41
                                        {
OFFSET 0.023 -4.259 -1.122
						CHANNELS 3 Xrotation Yrotation Zrotation
                                            JOINT LeftFinger42
                                            {
OFFSET -0 -2.835 0.000
						CHANNELS 3 Xrotation Yrotation Zrotation
                                                JOINT LeftFinger4Nub
                                                {
OFFSET -0 -1.792 0.000
						CHANNELS 3 Xrotation Yrotation Zrotation
                                                    End Site
                                                    {
OFFSET 0 -1.692 0
                                                    }
                                                }
                                            }
                                        }
                                    }
                                }
                            }
                        }
                    }
                }
            }
        }
    }
}
MOTION

Frames: 4
Frame Time: 0.017
-254.45 93.27 161.18 120.71 4.81 -6.97 2.63 -7.90 -1.75 0.00 15.69 0.00 -21.25 -1.61 19.01 -7.89 -24.13 16.62 -0.00 38.45 0.00 2.97 -3.71 -13.38 -8.89 -1.70 1.94 -2.23 -0.35 0.46 -3.70 -0.49 0.77 -0.94 3.63 0.31 3.71 56.49 9.74 -12.88 26.79 6.45 21.20 -0.25 -6.98 -9.01 -16.99 -2.15 -6.11 48.07 5.16 -7.16 6.01 12.48 -47.18 -0 16.31 16.18 -0 -13.51 8.49 -0 0.00 0 -0 0.00 -15 -0 15.72 0 -0 10.98 0 -0 5.49 0 -0 0.00 0 -0 11.68 0 -0 11.68 0 -0 11.68 0 -0 0.00 15 -0 23.40 0 -0 23.40 0 -0 23.40 0 -0 0.00 25 -0 26.92 0 -0 26.92 0 -0 26.92 -10.20 -4.45 -0.41 3.43 -15.28 16.17 -1.16 -6.17 -4.54 5.43 1.09 -7.10 -11.23 0 -39.40 -12.42 0 4.81 4.36 0 0.00 0.00 0 0.00 -15.00 0 -13.99 0.00 0 -10.90 0.00 0 -5.45 0.00 0 0.00 0.00 0 -15.64 0.00 0 -15.64 0.00 0 -15.64 0.00 0 0.00 15.00 0 -21.18 0.00 0 -21.18 0.00 0 -21.18 0.00 0 0.00 25.00 0 -19.40 0.00 0 -19.40 0.00 0 -19.40 
-254.31 93.19 161.21 121.37 4.47 -6.96 2.43 -7.94 -1.62 0.00 16.82 0.00 -21.63 -1.92 19.14 -8.95 -23.84 16.70 0.00 38.92 0.00 3.38 -3.90 -13.21 -9.03 -1.47 1.89 -2.27 -0.30 0.45 -3.75 -0.40 0.75 -0.96 3.64 0.32 3.82 56.63 9.97 -12.96 26.68 6.70 21.32 -0.37 -7.01 -8.99 -17.09 -2.31 -6.02 47.33 5.17 -6.97 5.71 13.46 -47.51 -0 16.26 15.52 -0 -13.56 8.41 -0 0.00 0 -0 0.00 -15 -0 14.74 0 -0 10.54 0 -0 5.27 0 -0 0.00 0 -0 10.90 0 -0 10.90 0 -0 10.90 0 -0 0.00 15 -0 23.43 0 -0 23.43 0 -0 23.43 0 -0 0.00 25 -0 27.42 0 -0 27.42 0 -0 27.42 -10.12 -4.80 -0.57 3.21 -15.40 16.73 -1.39 -5.66 -4.60 6.08 0.22 -7.46 -11.23 0 -39.40 -12.42 0 4.81 3.86 0 0.00 0.00 0 0.00 -15.00 0 -12.72 0.00 0 -10.65 0.00 0 -5.32 0.00 0 0.00 0.00 0 -15.02 0.00 0 -15.02 0.00 0 -15.02 0.00 0 0.00 15.00 0 -20.74 0.00 0 -20.74 0.00 0 -20.74 0.00 0 0.00 25.00 0 -19.40 0.00 0 -19.40 0.00 0 -19.40 
-254.18 93.14 161.24 121.37 4.47 -6.96 2.42 -8.15 -1.56 0.00 17.37 0.00 -21.63 -2.26 19.20 -9.07 -23.85 16.78 0.00 39.15 0.00 3.45 -4.08 -13.31 -9.03 -1.47 1.89 -2.27 -0.30 0.45 -3.75 -0.40 0.75 -0.96 3.64 0.32 3.82 56.63 9.97 -12.96 26.68 6.70 21.32 -0.37 -7.01 -8.99 -17.09 -2.31 -6.02 47.33 5.17 -6.97 5.71 13.46 -47.51 -0 16.26 15.52 -0 -13.56 8.41 -0 0.00 0 -0 0.00 -15 -0 14.74 0 -0 10.54 0 -0 5.27 0 -0 0.00 0 -0 10.90 0 -0 10.90 0 -0 10.90 0 -0 0.00 15 -0 23.43 0 -0 23.43 0 -0 23.43 0 -0 0.00 25 -0 27.42 0 -0 27.42 0 -0 27.42 -10.12 -4.80 -0.57 3.21 -15.40 16.73 -1.39 -5.66 -4.60 6.08 0.22 -7.46 -11.23 0 -39.40 -12.42 0 4.81 3.86 0 0.00 0.00 0 0.00 -15.00 0 -12.72 0.00 0 -10.65 0.00 0 -5.32 0.00 0 0.00 0.00 0 -19.13 0.00 0 -19.13 0.00 0 -19.13 0.00 0 0.00 15.00 0 -24.18 0.00 0 -24.18 0.00 0 -24.18 0.00 0 0.00 25.00 0 -20.97 0.00 0 -20.97 0.00 0 -20.97 
-254.06 93.10 161.26 121.37 4.47 -6.96 2.41 -8.33 -1.50 0.00 17.84 0.00 -21.64 -2.55 19.26 -9.17 -23.84 16.84 0.00 39.31 -0.00 3.50 -4.22 -13.39 -9.03 -1.47 1.89 -2.27 -0.30 0.45 -3.75 -0.40 0.75 -0.96 3.64 0.32 3.82 56.63 9.97 -12.96 26.68 6.70 21.32 -0.37 -7.01 -8.99 -17.09 -2.31 -6.02 47.33 5.17 -6.97 5.71 13.46 -47.51 -0 16.26 15.52 -0 -13.56 8.41 -0 0.00 0 -0 0.00 -15 -0 14.74 0 -0 10.54 0 -0 5.27 0 -0 0.00 0 -0 10.90 0 -0 10.90 0 -0 10.90 0 -0 0.00 15 -0 23.43 0 -0 23.43 0 -0 23.43 0 -0 0.00 25 -0 27.42 0 -0 27.42 0 -0 27.42 -10.12 -4.80 -0.57 3.21 -15.40 16.73 -1.39 -5.66 -4.60 6.08 0.22 -7.46 -11.23 0 -39.40 -12.42 0 4.81 3.86 0 0.00 0.00 0 0.00 -15.00 0 -12.72 0.00 0 -10.65 0.00 0 -5.32 0.00 0 0.00 0.00 0 -19.11 0.00 0 -19.11 0.00 0 -19.11 0.00 0 0.00 15.00 0 -24.18 0.00 0 -24.18 0.00 0 -24.18 0.00 0 0.00 25.00 0 -20.99 0.00 0 -20.99 0.00 0 -20.99 
